<svg width="28" height="40" viewBox="0 0 28 40" fill="none" xmlns="http://www.w3.org/2000/svg">
<path d="M3.0813 24.4742L28.0038 15.9755L27.1275 39.6103L6.48817 40L3.0813 24.4742Z" fill="#6D38E0"/>
<path d="M26.7595 30.4226C26.7595 32.5797 24.421 34.3278 21.5363 34.3278C18.652 34.3278 16.3135 32.5795 16.3135 30.4226C16.3135 28.2656 18.652 26.5173 21.5363 26.5173C24.421 26.5173 26.7595 28.2656 26.7595 30.4226Z" fill="white"/>
<path d="M18.6809 31.0462C18.6809 31.5427 18.2995 31.9455 17.8286 31.9455C17.3578 31.9455 16.9763 31.5427 16.9763 31.0462C16.9763 30.5488 17.3578 30.1456 17.8286 30.1456C18.2995 30.1456 18.6809 30.5488 18.6809 31.0462Z" fill="#002547"/>
<path d="M5.13281 31.0456C5.13281 33.2027 7.47131 34.9509 10.356 34.9509C13.2404 34.9509 15.5789 33.2026 15.5789 31.0456C15.5789 28.8887 13.2404 27.1404 10.356 27.1404C7.47131 27.1404 5.13281 28.8887 5.13281 31.0456Z" fill="white"/>
<path d="M13.2114 31.6692C13.2114 32.1658 13.5928 32.5685 14.0637 32.5685C14.5345 32.5685 14.916 32.1658 14.916 31.6692C14.916 31.1719 14.5345 30.7687 14.0637 30.7687C13.5928 30.7687 13.2114 31.1719 13.2114 31.6692Z" fill="#002547"/>
<path d="M24.6453 17.1003L23.1963 21.3544L19.8989 22.1127L21.1164 18.3062L24.6453 17.1003Z" fill="#D2CCFF"/>
<path d="M7.18465 23.0693L6.43958 25.2124L3.39642 25.9125L3.08081 24.472L7.18465 23.0693Z" fill="#D2CCFF"/>
<path d="M16.3635 19.932L15.2898 23.175L10.844 24.1975L11.8269 21.4816L16.3635 19.932Z" fill="#D2CCFF"/>
<path d="M1.92456 19.1336L7.81967 20.8522L11.7043 17.6684L5.0873 16.168L1.92456 19.1336Z" fill="#6D38E0"/>
<path d="M24.1435 7.44768L22.391 0L16.124 5.866L23.0487 8.3277L24.1435 7.44768Z" fill="#6D38E0"/>
<path d="M20.3272 10.5706L12.6425 9.11292L8.60889 12.8877L14.7584 15.1382L20.3272 10.5706Z" fill="#6D38E0"/>
<path d="M20.233 10.6649L23.175 8.24452L16.2444 5.74573L12.592 9.15999L20.233 10.6649Z" fill="#D2CCFF"/>
<path d="M8.68061 12.816L4.9812 16.274L11.62 17.7526L15.6516 14.435L8.68061 12.816Z" fill="#D2CCFF"/>
<path d="M0 20.9315L3.15927 24.831L3.72173 24.2528L7.94801 20.7744L1.95926 19.0992L0 20.9315Z" fill="#D2CCFF"/>
</svg>
